<mxfile host="app.diagrams.net" modified="2023-10-25T19:16:08.355Z" agent="Mozilla/5.0 (Windows NT 10.0; Win64; x64) AppleWebKit/537.36 (KHTML, like Gecko) Chrome/116.0.0.0 Safari/537.36 OPR/102.0.0.0 (Edition Yx GX)" etag="5z74Bk_0M_WuFZ8uqNzB" version="22.0.7" type="github">
  <diagram id="C5RBs43oDa-KdzZeNtuy" name="Page-1">
    <mxGraphModel dx="1552" dy="2063" grid="1" gridSize="10" guides="1" tooltips="1" connect="1" arrows="1" fold="1" page="1" pageScale="1" pageWidth="827" pageHeight="1169" math="0" shadow="0">
      <root>
        <mxCell id="WIyWlLk6GJQsqaUBKTNV-0" />
        <mxCell id="WIyWlLk6GJQsqaUBKTNV-1" parent="WIyWlLk6GJQsqaUBKTNV-0" />
        <mxCell id="mcAzmB1divL-ZnLY_8Cf-8" value="" style="edgeStyle=orthogonalEdgeStyle;rounded=0;orthogonalLoop=1;jettySize=auto;html=1;" parent="WIyWlLk6GJQsqaUBKTNV-1" source="mcAzmB1divL-ZnLY_8Cf-0" edge="1">
          <mxGeometry relative="1" as="geometry">
            <mxPoint x="500" y="-300" as="targetPoint" />
          </mxGeometry>
        </mxCell>
        <mxCell id="mcAzmB1divL-ZnLY_8Cf-0" value="&lt;p style=&quot;line-height: 110%;&quot;&gt;&lt;font style=&quot;font-size: 18px;&quot;&gt;delete&lt;/font&gt;&lt;/p&gt;" style="ellipse;whiteSpace=wrap;html=1;" parent="WIyWlLk6GJQsqaUBKTNV-1" vertex="1">
          <mxGeometry x="445" y="-400" width="110" height="60" as="geometry" />
        </mxCell>
        <mxCell id="mcAzmB1divL-ZnLY_8Cf-22" value="&lt;span style=&quot;font-size: 25px;&quot;&gt;Ввод &lt;br&gt;a, n, i&lt;br&gt;&lt;/span&gt;" style="shape=parallelogram;perimeter=parallelogramPerimeter;whiteSpace=wrap;html=1;fixedSize=1;" parent="WIyWlLk6GJQsqaUBKTNV-1" vertex="1">
          <mxGeometry x="440" y="-300" width="120" height="60" as="geometry" />
        </mxCell>
        <mxCell id="mcAzmB1divL-ZnLY_8Cf-24" value="" style="edgeStyle=orthogonalEdgeStyle;rounded=0;orthogonalLoop=1;jettySize=auto;html=1;" parent="WIyWlLk6GJQsqaUBKTNV-1" edge="1">
          <mxGeometry relative="1" as="geometry">
            <mxPoint x="502.99999999999994" y="-25" as="sourcePoint" />
            <mxPoint x="502.99999999999994" y="15" as="targetPoint" />
          </mxGeometry>
        </mxCell>
        <mxCell id="mcAzmB1divL-ZnLY_8Cf-30" value="&lt;font style=&quot;font-size: 20px;&quot;&gt;k = 0; k &amp;lt; n; k++&lt;/font&gt;" style="shape=hexagon;perimeter=hexagonPerimeter2;whiteSpace=wrap;html=1;fixedSize=1;" parent="WIyWlLk6GJQsqaUBKTNV-1" vertex="1">
          <mxGeometry x="415.5" y="105" width="175" height="50" as="geometry" />
        </mxCell>
        <mxCell id="mcAzmB1divL-ZnLY_8Cf-31" value="" style="edgeStyle=orthogonalEdgeStyle;rounded=0;orthogonalLoop=1;jettySize=auto;html=1;" parent="WIyWlLk6GJQsqaUBKTNV-1" edge="1">
          <mxGeometry relative="1" as="geometry">
            <mxPoint x="502.5799999999999" y="155" as="sourcePoint" />
            <mxPoint x="502.5799999999999" y="195" as="targetPoint" />
          </mxGeometry>
        </mxCell>
        <mxCell id="mcAzmB1divL-ZnLY_8Cf-33" value="&lt;span style=&quot;font-size: 20px;&quot;&gt;k == i&lt;/span&gt;" style="rhombus;whiteSpace=wrap;html=1;" parent="WIyWlLk6GJQsqaUBKTNV-1" vertex="1">
          <mxGeometry x="463" y="195" width="80" height="80" as="geometry" />
        </mxCell>
        <mxCell id="mcAzmB1divL-ZnLY_8Cf-34" value="&#xa;&lt;div style=&quot;color: rgb(204, 204, 204); background-color: rgb(31, 31, 31); font-family: Consolas, &amp;quot;Courier New&amp;quot;, monospace; font-weight: normal; font-size: 14px; line-height: 19px;&quot;&gt;&lt;br&gt;&lt;/div&gt;&#xa;&#xa;" style="endArrow=classic;html=1;rounded=0;exitX=0;exitY=0.5;exitDx=0;exitDy=0;entryX=0;entryY=0.5;entryDx=0;entryDy=0;" parent="WIyWlLk6GJQsqaUBKTNV-1" target="mcAzmB1divL-ZnLY_8Cf-30" edge="1">
          <mxGeometry width="50" height="50" relative="1" as="geometry">
            <mxPoint x="463" y="234.99999999999955" as="sourcePoint" />
            <mxPoint x="363" y="115" as="targetPoint" />
            <Array as="points">
              <mxPoint x="363" y="235" />
              <mxPoint x="363" y="130" />
            </Array>
          </mxGeometry>
        </mxCell>
        <mxCell id="mcAzmB1divL-ZnLY_8Cf-35" value="&lt;font style=&quot;font-size: 20px;&quot;&gt;Да&lt;/font&gt;" style="edgeLabel;html=1;align=center;verticalAlign=middle;resizable=0;points=[];" parent="mcAzmB1divL-ZnLY_8Cf-34" vertex="1" connectable="0">
          <mxGeometry x="-0.4462" y="1" relative="1" as="geometry">
            <mxPoint x="24" y="-3" as="offset" />
          </mxGeometry>
        </mxCell>
        <mxCell id="mcAzmB1divL-ZnLY_8Cf-37" value="" style="endArrow=none;html=1;rounded=0;exitX=1;exitY=0.5;exitDx=0;exitDy=0;endFill=0;" parent="WIyWlLk6GJQsqaUBKTNV-1" edge="1">
          <mxGeometry width="50" height="50" relative="1" as="geometry">
            <mxPoint x="543" y="234.99999999999955" as="sourcePoint" />
            <mxPoint x="583" y="305" as="targetPoint" />
            <Array as="points">
              <mxPoint x="583" y="235" />
            </Array>
          </mxGeometry>
        </mxCell>
        <mxCell id="mcAzmB1divL-ZnLY_8Cf-39" value="" style="endArrow=classic;html=1;rounded=0;" parent="WIyWlLk6GJQsqaUBKTNV-1" edge="1">
          <mxGeometry width="50" height="50" relative="1" as="geometry">
            <mxPoint x="583" y="305" as="sourcePoint" />
            <mxPoint x="503" y="355" as="targetPoint" />
            <Array as="points">
              <mxPoint x="503" y="305" />
            </Array>
          </mxGeometry>
        </mxCell>
        <mxCell id="mcAzmB1divL-ZnLY_8Cf-44" value="" style="edgeStyle=orthogonalEdgeStyle;rounded=0;orthogonalLoop=1;jettySize=auto;html=1;" parent="WIyWlLk6GJQsqaUBKTNV-1" source="mcAzmB1divL-ZnLY_8Cf-40" edge="1">
          <mxGeometry relative="1" as="geometry">
            <mxPoint x="503" y="445" as="targetPoint" />
          </mxGeometry>
        </mxCell>
        <mxCell id="mcAzmB1divL-ZnLY_8Cf-40" value="a[j] = arr[k]" style="rounded=0;whiteSpace=wrap;html=1;fontSize=20;" parent="WIyWlLk6GJQsqaUBKTNV-1" vertex="1">
          <mxGeometry x="430.18" y="355" width="145.64" height="51" as="geometry" />
        </mxCell>
        <mxCell id="mcAzmB1divL-ZnLY_8Cf-41" value="j = 0" style="rounded=0;whiteSpace=wrap;html=1;fontSize=20;" parent="WIyWlLk6GJQsqaUBKTNV-1" vertex="1">
          <mxGeometry x="430.18" y="15" width="145.64" height="51" as="geometry" />
        </mxCell>
        <mxCell id="mcAzmB1divL-ZnLY_8Cf-42" value="" style="edgeStyle=orthogonalEdgeStyle;rounded=0;orthogonalLoop=1;jettySize=auto;html=1;" parent="WIyWlLk6GJQsqaUBKTNV-1" edge="1">
          <mxGeometry relative="1" as="geometry">
            <mxPoint x="502.5799999999999" y="66" as="sourcePoint" />
            <mxPoint x="502.5799999999999" y="106" as="targetPoint" />
          </mxGeometry>
        </mxCell>
        <mxCell id="mcAzmB1divL-ZnLY_8Cf-45" value="j = j + 1" style="rounded=0;whiteSpace=wrap;html=1;fontSize=20;" parent="WIyWlLk6GJQsqaUBKTNV-1" vertex="1">
          <mxGeometry x="430.18" y="445" width="145.64" height="51" as="geometry" />
        </mxCell>
        <mxCell id="mcAzmB1divL-ZnLY_8Cf-47" value="" style="edgeStyle=orthogonalEdgeStyle;rounded=0;orthogonalLoop=1;jettySize=auto;html=1;exitX=0.5;exitY=1;exitDx=0;exitDy=0;endArrow=none;endFill=0;" parent="WIyWlLk6GJQsqaUBKTNV-1" source="mcAzmB1divL-ZnLY_8Cf-45" edge="1">
          <mxGeometry relative="1" as="geometry">
            <mxPoint x="523" y="426" as="sourcePoint" />
            <mxPoint x="363" y="225" as="targetPoint" />
            <Array as="points">
              <mxPoint x="503" y="535" />
              <mxPoint x="363" y="535" />
            </Array>
          </mxGeometry>
        </mxCell>
        <mxCell id="mcAzmB1divL-ZnLY_8Cf-48" value="" style="endArrow=classic;html=1;rounded=0;exitX=1;exitY=0.5;exitDx=0;exitDy=0;endFill=1;entryX=0.5;entryY=0;entryDx=0;entryDy=0;" parent="WIyWlLk6GJQsqaUBKTNV-1" target="mcAzmB1divL-ZnLY_8Cf-50" edge="1">
          <mxGeometry width="50" height="50" relative="1" as="geometry">
            <mxPoint x="590.5" y="129.99999999999955" as="sourcePoint" />
            <mxPoint x="713" y="205" as="targetPoint" />
            <Array as="points">
              <mxPoint x="716" y="130" />
            </Array>
          </mxGeometry>
        </mxCell>
        <mxCell id="mcAzmB1divL-ZnLY_8Cf-52" value="" style="edgeStyle=orthogonalEdgeStyle;rounded=0;orthogonalLoop=1;jettySize=auto;html=1;entryX=0.5;entryY=0;entryDx=0;entryDy=0;" parent="WIyWlLk6GJQsqaUBKTNV-1" source="mcAzmB1divL-ZnLY_8Cf-50" target="mcAzmB1divL-ZnLY_8Cf-95" edge="1">
          <mxGeometry relative="1" as="geometry">
            <mxPoint x="715.8199999999997" y="346" as="targetPoint" />
          </mxGeometry>
        </mxCell>
        <mxCell id="mcAzmB1divL-ZnLY_8Cf-50" value="n = n - 1" style="rounded=0;whiteSpace=wrap;html=1;fontSize=20;" parent="WIyWlLk6GJQsqaUBKTNV-1" vertex="1">
          <mxGeometry x="643" y="209.5" width="145.64" height="51" as="geometry" />
        </mxCell>
        <mxCell id="mcAzmB1divL-ZnLY_8Cf-54" value="&lt;span style=&quot;font-size: 25px;&quot;&gt;a, n&lt;br&gt;&lt;/span&gt;" style="shape=parallelogram;perimeter=parallelogramPerimeter;whiteSpace=wrap;html=1;fixedSize=1;" parent="WIyWlLk6GJQsqaUBKTNV-1" vertex="1">
          <mxGeometry x="655.82" y="445" width="120" height="61" as="geometry" />
        </mxCell>
        <mxCell id="mcAzmB1divL-ZnLY_8Cf-55" value="" style="edgeStyle=orthogonalEdgeStyle;rounded=0;orthogonalLoop=1;jettySize=auto;html=1;" parent="WIyWlLk6GJQsqaUBKTNV-1" source="mcAzmB1divL-ZnLY_8Cf-56" edge="1">
          <mxGeometry relative="1" as="geometry">
            <mxPoint x="1051.8200000000002" y="-300" as="targetPoint" />
          </mxGeometry>
        </mxCell>
        <mxCell id="mcAzmB1divL-ZnLY_8Cf-56" value="&lt;p style=&quot;line-height: 110%;&quot;&gt;&lt;span style=&quot;font-size: 18px;&quot;&gt;insert&lt;/span&gt;&lt;/p&gt;" style="ellipse;whiteSpace=wrap;html=1;" parent="WIyWlLk6GJQsqaUBKTNV-1" vertex="1">
          <mxGeometry x="996.8199999999999" y="-400" width="110" height="60" as="geometry" />
        </mxCell>
        <mxCell id="mcAzmB1divL-ZnLY_8Cf-57" value="&lt;span style=&quot;font-size: 25px;&quot;&gt;Ввод&lt;br&gt;a, n, x, i&lt;br&gt;&lt;/span&gt;" style="shape=parallelogram;perimeter=parallelogramPerimeter;whiteSpace=wrap;html=1;fixedSize=1;" parent="WIyWlLk6GJQsqaUBKTNV-1" vertex="1">
          <mxGeometry x="986.8199999999999" y="-301" width="130" height="60" as="geometry" />
        </mxCell>
        <mxCell id="mcAzmB1divL-ZnLY_8Cf-68" value="i = n" style="rounded=0;whiteSpace=wrap;html=1;fontSize=20;" parent="WIyWlLk6GJQsqaUBKTNV-1" vertex="1">
          <mxGeometry x="866" y="209.5" width="145.64" height="51" as="geometry" />
        </mxCell>
        <mxCell id="mcAzmB1divL-ZnLY_8Cf-78" value="&lt;span style=&quot;font-size: 20px;&quot;&gt;i &amp;gt; n&lt;/span&gt;" style="rhombus;whiteSpace=wrap;html=1;" parent="WIyWlLk6GJQsqaUBKTNV-1" vertex="1">
          <mxGeometry x="1011.64" y="92" width="80" height="80" as="geometry" />
        </mxCell>
        <mxCell id="mcAzmB1divL-ZnLY_8Cf-79" value="&#xa;&lt;div style=&quot;color: rgb(204, 204, 204); background-color: rgb(31, 31, 31); font-family: Consolas, &amp;quot;Courier New&amp;quot;, monospace; font-weight: normal; font-size: 14px; line-height: 19px;&quot;&gt;&lt;br&gt;&lt;/div&gt;&#xa;&#xa;" style="endArrow=classic;html=1;rounded=0;exitX=0;exitY=0.5;exitDx=0;exitDy=0;entryX=0.5;entryY=0;entryDx=0;entryDy=0;" parent="WIyWlLk6GJQsqaUBKTNV-1" target="mcAzmB1divL-ZnLY_8Cf-68" edge="1">
          <mxGeometry width="50" height="50" relative="1" as="geometry">
            <mxPoint x="1010.64" y="132.49999999999955" as="sourcePoint" />
            <mxPoint x="940.64" y="187.5" as="targetPoint" />
            <Array as="points">
              <mxPoint x="938.64" y="132" />
            </Array>
          </mxGeometry>
        </mxCell>
        <mxCell id="mcAzmB1divL-ZnLY_8Cf-80" value="&lt;font style=&quot;font-size: 20px;&quot;&gt;Да&lt;/font&gt;" style="edgeLabel;html=1;align=center;verticalAlign=middle;resizable=0;points=[];" parent="mcAzmB1divL-ZnLY_8Cf-79" vertex="1" connectable="0">
          <mxGeometry x="-0.4462" y="1" relative="1" as="geometry">
            <mxPoint x="6" y="-3" as="offset" />
          </mxGeometry>
        </mxCell>
        <mxCell id="mcAzmB1divL-ZnLY_8Cf-82" value="" style="endArrow=none;html=1;rounded=0;exitX=1;exitY=0.5;exitDx=0;exitDy=0;endFill=0;" parent="WIyWlLk6GJQsqaUBKTNV-1" edge="1">
          <mxGeometry width="50" height="50" relative="1" as="geometry">
            <mxPoint x="1092.64" y="132.49999999999955" as="sourcePoint" />
            <mxPoint x="1162.64" y="256.5" as="targetPoint" />
            <Array as="points">
              <mxPoint x="1162.64" y="132.5" />
            </Array>
          </mxGeometry>
        </mxCell>
        <mxCell id="mcAzmB1divL-ZnLY_8Cf-84" value="" style="endArrow=classic;html=1;rounded=0;entryX=0.5;entryY=0;entryDx=0;entryDy=0;" parent="WIyWlLk6GJQsqaUBKTNV-1" target="mcAzmB1divL-ZnLY_8Cf-85" edge="1">
          <mxGeometry width="50" height="50" relative="1" as="geometry">
            <mxPoint x="1162.64" y="256.5" as="sourcePoint" />
            <mxPoint x="1052.64" y="296.5" as="targetPoint" />
            <Array as="points">
              <mxPoint x="1112.64" y="256.5" />
              <mxPoint x="1052.64" y="256.5" />
            </Array>
          </mxGeometry>
        </mxCell>
        <mxCell id="mcAzmB1divL-ZnLY_8Cf-85" value="&lt;font style=&quot;font-size: 20px;&quot;&gt;j = n; j &amp;gt; i; j--&lt;/font&gt;" style="shape=hexagon;perimeter=hexagonPerimeter2;whiteSpace=wrap;html=1;fixedSize=1;" parent="WIyWlLk6GJQsqaUBKTNV-1" vertex="1">
          <mxGeometry x="964.14" y="347" width="175" height="50" as="geometry" />
        </mxCell>
        <mxCell id="mcAzmB1divL-ZnLY_8Cf-86" value="&#xa;&lt;div style=&quot;color: rgb(204, 204, 204); background-color: rgb(31, 31, 31); font-family: Consolas, &amp;quot;Courier New&amp;quot;, monospace; font-weight: normal; font-size: 14px; line-height: 19px;&quot;&gt;&lt;br&gt;&lt;/div&gt;&#xa;&#xa;" style="endArrow=classic;html=1;rounded=0;exitX=0.5;exitY=1;exitDx=0;exitDy=0;" parent="WIyWlLk6GJQsqaUBKTNV-1" source="mcAzmB1divL-ZnLY_8Cf-89" edge="1">
          <mxGeometry width="50" height="50" relative="1" as="geometry">
            <mxPoint x="1056.64" y="494" as="sourcePoint" />
            <mxPoint x="964.64" y="371.5" as="targetPoint" />
            <Array as="points">
              <mxPoint x="1051.64" y="532" />
              <mxPoint x="920.64" y="532" />
              <mxPoint x="920.64" y="371.5" />
            </Array>
          </mxGeometry>
        </mxCell>
        <mxCell id="mcAzmB1divL-ZnLY_8Cf-88" value="" style="edgeStyle=orthogonalEdgeStyle;rounded=0;orthogonalLoop=1;jettySize=auto;html=1;entryX=0.5;entryY=0;entryDx=0;entryDy=0;" parent="WIyWlLk6GJQsqaUBKTNV-1" target="mcAzmB1divL-ZnLY_8Cf-89" edge="1">
          <mxGeometry relative="1" as="geometry">
            <mxPoint x="1051.64" y="398" as="sourcePoint" />
            <mxPoint x="1051.64" y="437" as="targetPoint" />
          </mxGeometry>
        </mxCell>
        <mxCell id="mcAzmB1divL-ZnLY_8Cf-89" value="a[j] = a[j - 1]" style="rounded=0;whiteSpace=wrap;html=1;fontSize=20;" parent="WIyWlLk6GJQsqaUBKTNV-1" vertex="1">
          <mxGeometry x="978.82" y="442" width="145.64" height="51" as="geometry" />
        </mxCell>
        <mxCell id="mcAzmB1divL-ZnLY_8Cf-91" value="" style="endArrow=classic;html=1;rounded=0;exitX=1;exitY=0.5;exitDx=0;exitDy=0;endFill=1;entryX=0.5;entryY=0;entryDx=0;entryDy=0;" parent="WIyWlLk6GJQsqaUBKTNV-1" target="mcAzmB1divL-ZnLY_8Cf-92" edge="1">
          <mxGeometry width="50" height="50" relative="1" as="geometry">
            <mxPoint x="1140.14" y="371.49999999999955" as="sourcePoint" />
            <mxPoint x="1262.64" y="446.5" as="targetPoint" />
            <Array as="points">
              <mxPoint x="1265.64" y="371.5" />
            </Array>
          </mxGeometry>
        </mxCell>
        <mxCell id="mcAzmB1divL-ZnLY_8Cf-97" value="" style="edgeStyle=orthogonalEdgeStyle;rounded=0;orthogonalLoop=1;jettySize=auto;html=1;" parent="WIyWlLk6GJQsqaUBKTNV-1" source="mcAzmB1divL-ZnLY_8Cf-92" edge="1">
          <mxGeometry relative="1" as="geometry">
            <mxPoint x="1263.4599999999998" y="542" as="targetPoint" />
          </mxGeometry>
        </mxCell>
        <mxCell id="mcAzmB1divL-ZnLY_8Cf-92" value="n = n + 1" style="rounded=0;whiteSpace=wrap;html=1;fontSize=20;" parent="WIyWlLk6GJQsqaUBKTNV-1" vertex="1">
          <mxGeometry x="1190.64" y="442" width="145.64" height="51" as="geometry" />
        </mxCell>
        <mxCell id="mcAzmB1divL-ZnLY_8Cf-95" value="realloc(a, n)" style="rounded=0;whiteSpace=wrap;html=1;fontSize=20;" parent="WIyWlLk6GJQsqaUBKTNV-1" vertex="1">
          <mxGeometry x="643.0000000000001" y="355" width="145.64" height="51" as="geometry" />
        </mxCell>
        <mxCell id="mcAzmB1divL-ZnLY_8Cf-99" value="realloc(a, n + 1)" style="rounded=0;whiteSpace=wrap;html=1;fontSize=20;" parent="WIyWlLk6GJQsqaUBKTNV-1" vertex="1">
          <mxGeometry x="979.0000000000001" y="15" width="145.64" height="51" as="geometry" />
        </mxCell>
        <mxCell id="mcAzmB1divL-ZnLY_8Cf-100" value="" style="edgeStyle=orthogonalEdgeStyle;rounded=0;orthogonalLoop=1;jettySize=auto;html=1;" parent="WIyWlLk6GJQsqaUBKTNV-1" edge="1">
          <mxGeometry relative="1" as="geometry">
            <mxPoint x="1051.5900000000001" y="66" as="sourcePoint" />
            <mxPoint x="1051.64" y="92" as="targetPoint" />
          </mxGeometry>
        </mxCell>
        <mxCell id="mcAzmB1divL-ZnLY_8Cf-102" value="a[i] = x" style="rounded=0;whiteSpace=wrap;html=1;fontSize=20;" parent="WIyWlLk6GJQsqaUBKTNV-1" vertex="1">
          <mxGeometry x="1190.64" y="542" width="145.64" height="51" as="geometry" />
        </mxCell>
        <mxCell id="mcAzmB1divL-ZnLY_8Cf-104" value="&lt;span style=&quot;font-size: 25px;&quot;&gt;a, n&lt;br&gt;&lt;/span&gt;" style="shape=parallelogram;perimeter=parallelogramPerimeter;whiteSpace=wrap;html=1;fixedSize=1;" parent="WIyWlLk6GJQsqaUBKTNV-1" vertex="1">
          <mxGeometry x="1203.4600000000003" y="632" width="120" height="61" as="geometry" />
        </mxCell>
        <mxCell id="mcAzmB1divL-ZnLY_8Cf-105" value="" style="edgeStyle=orthogonalEdgeStyle;rounded=0;orthogonalLoop=1;jettySize=auto;html=1;" parent="WIyWlLk6GJQsqaUBKTNV-1" edge="1">
          <mxGeometry relative="1" as="geometry">
            <mxPoint x="1262.8700000000001" y="593" as="sourcePoint" />
            <mxPoint x="1262.8700000000001" y="632" as="targetPoint" />
          </mxGeometry>
        </mxCell>
        <mxCell id="0" value="" style="edgeStyle=orthogonalEdgeStyle;rounded=0;orthogonalLoop=1;jettySize=auto;html=1;" parent="WIyWlLk6GJQsqaUBKTNV-1" edge="1">
          <mxGeometry relative="1" as="geometry">
            <mxPoint x="503.2899999999999" y="-240" as="sourcePoint" />
            <mxPoint x="503.2899999999999" y="-200" as="targetPoint" />
          </mxGeometry>
        </mxCell>
        <mxCell id="1" value="&lt;span style=&quot;font-size: 20px;&quot;&gt;n &amp;lt; 1 || i &amp;lt; 0 || i &amp;gt;= n&lt;/span&gt;" style="rhombus;whiteSpace=wrap;html=1;" parent="WIyWlLk6GJQsqaUBKTNV-1" vertex="1">
          <mxGeometry x="395" y="-199" width="216.29" height="140" as="geometry" />
        </mxCell>
        <mxCell id="3" value="" style="endArrow=none;html=1;rounded=0;exitX=1;exitY=0.5;exitDx=0;exitDy=0;endFill=0;" parent="WIyWlLk6GJQsqaUBKTNV-1" source="1" edge="1">
          <mxGeometry width="50" height="50" relative="1" as="geometry">
            <mxPoint x="615.82" y="-129.00000000000045" as="sourcePoint" />
            <mxPoint x="503" y="-10" as="targetPoint" />
            <Array as="points">
              <mxPoint x="680" y="-130" />
              <mxPoint x="683" y="-40" />
              <mxPoint x="503" y="-40" />
            </Array>
          </mxGeometry>
        </mxCell>
        <mxCell id="4" value="&#xa;&lt;div style=&quot;color: rgb(204, 204, 204); background-color: rgb(31, 31, 31); font-family: Consolas, &amp;quot;Courier New&amp;quot;, monospace; font-weight: normal; font-size: 14px; line-height: 19px;&quot;&gt;&lt;br&gt;&lt;/div&gt;&#xa;&#xa;" style="endArrow=classic;html=1;rounded=0;exitX=0;exitY=0.5;exitDx=0;exitDy=0;entryX=0.5;entryY=0;entryDx=0;entryDy=0;" parent="WIyWlLk6GJQsqaUBKTNV-1" target="6" edge="1">
          <mxGeometry width="50" height="50" relative="1" as="geometry">
            <mxPoint x="395" y="-129.50000000000045" as="sourcePoint" />
            <mxPoint x="243" y="-9" as="targetPoint" />
            <Array as="points">
              <mxPoint x="243" y="-129" />
            </Array>
          </mxGeometry>
        </mxCell>
        <mxCell id="5" value="&lt;font style=&quot;font-size: 20px;&quot;&gt;Да&lt;/font&gt;" style="edgeLabel;html=1;align=center;verticalAlign=middle;resizable=0;points=[];" parent="4" vertex="1" connectable="0">
          <mxGeometry x="-0.4462" y="1" relative="1" as="geometry">
            <mxPoint x="21" y="-3" as="offset" />
          </mxGeometry>
        </mxCell>
        <mxCell id="6" value="&lt;span style=&quot;font-size: 25px;&quot;&gt;Выход&lt;br&gt;&lt;/span&gt;" style="shape=parallelogram;perimeter=parallelogramPerimeter;whiteSpace=wrap;html=1;fixedSize=1;" parent="WIyWlLk6GJQsqaUBKTNV-1" vertex="1">
          <mxGeometry x="183.00000000000023" y="5" width="120" height="61" as="geometry" />
        </mxCell>
        <mxCell id="7" value="" style="edgeStyle=orthogonalEdgeStyle;rounded=0;orthogonalLoop=1;jettySize=auto;html=1;" parent="WIyWlLk6GJQsqaUBKTNV-1" edge="1">
          <mxGeometry relative="1" as="geometry">
            <mxPoint x="1053.2" y="-201" as="targetPoint" />
            <mxPoint x="1053.2" y="-241" as="sourcePoint" />
          </mxGeometry>
        </mxCell>
        <mxCell id="8" value="&lt;span style=&quot;font-size: 20px;&quot;&gt;i &amp;lt; 0&amp;nbsp;&lt;/span&gt;" style="rhombus;whiteSpace=wrap;html=1;" parent="WIyWlLk6GJQsqaUBKTNV-1" vertex="1">
          <mxGeometry x="975.23" y="-199" width="155.18" height="91" as="geometry" />
        </mxCell>
        <mxCell id="9" value="" style="endArrow=classic;html=1;rounded=0;exitX=1;exitY=0.5;exitDx=0;exitDy=0;endFill=1;entryX=0.5;entryY=0;entryDx=0;entryDy=0;" parent="WIyWlLk6GJQsqaUBKTNV-1" target="mcAzmB1divL-ZnLY_8Cf-99" edge="1">
          <mxGeometry width="50" height="50" relative="1" as="geometry">
            <mxPoint x="1131.75" y="-156" as="sourcePoint" />
            <mxPoint x="1023.4600000000003" y="-37" as="targetPoint" />
            <Array as="points">
              <mxPoint x="1200.46" y="-157" />
              <mxPoint x="1203" y="-60" />
              <mxPoint x="1052" y="-60" />
            </Array>
          </mxGeometry>
        </mxCell>
        <mxCell id="10" value="&#xa;&lt;div style=&quot;color: rgb(204, 204, 204); background-color: rgb(31, 31, 31); font-family: Consolas, &amp;quot;Courier New&amp;quot;, monospace; font-weight: normal; font-size: 14px; line-height: 19px;&quot;&gt;&lt;br&gt;&lt;/div&gt;&#xa;&#xa;" style="endArrow=classic;html=1;rounded=0;exitX=0;exitY=0.5;exitDx=0;exitDy=0;entryX=0.5;entryY=0;entryDx=0;entryDy=0;" parent="WIyWlLk6GJQsqaUBKTNV-1" target="12" edge="1">
          <mxGeometry width="50" height="50" relative="1" as="geometry">
            <mxPoint x="974.9999999999998" y="-154.00000000000045" as="sourcePoint" />
            <mxPoint x="870" y="-10" as="targetPoint" />
            <Array as="points">
              <mxPoint x="866" y="-154" />
            </Array>
          </mxGeometry>
        </mxCell>
        <mxCell id="11" value="&lt;font style=&quot;font-size: 20px;&quot;&gt;Да&lt;/font&gt;" style="edgeLabel;html=1;align=center;verticalAlign=middle;resizable=0;points=[];" parent="10" vertex="1" connectable="0">
          <mxGeometry x="-0.4462" y="1" relative="1" as="geometry">
            <mxPoint x="21" y="-3" as="offset" />
          </mxGeometry>
        </mxCell>
        <mxCell id="12" value="&lt;span style=&quot;font-size: 25px;&quot;&gt;Выход&lt;br&gt;&lt;/span&gt;" style="shape=parallelogram;perimeter=parallelogramPerimeter;whiteSpace=wrap;html=1;fixedSize=1;" parent="WIyWlLk6GJQsqaUBKTNV-1" vertex="1">
          <mxGeometry x="806.0000000000002" width="120" height="61" as="geometry" />
        </mxCell>
        <mxCell id="VrZD-T83ChpV0tjRcADD-12" value="&lt;p style=&quot;line-height: 110%;&quot;&gt;&lt;span style=&quot;font-size: 18px;&quot;&gt;Конец&lt;/span&gt;&lt;/p&gt;" style="ellipse;whiteSpace=wrap;html=1;" vertex="1" parent="WIyWlLk6GJQsqaUBKTNV-1">
          <mxGeometry x="660.82" y="537.5" width="110" height="60" as="geometry" />
        </mxCell>
        <mxCell id="VrZD-T83ChpV0tjRcADD-13" value="" style="edgeStyle=orthogonalEdgeStyle;rounded=0;orthogonalLoop=1;jettySize=auto;html=1;entryX=0.5;entryY=0;entryDx=0;entryDy=0;" edge="1" parent="WIyWlLk6GJQsqaUBKTNV-1" target="VrZD-T83ChpV0tjRcADD-12">
          <mxGeometry relative="1" as="geometry">
            <mxPoint x="715.82" y="506" as="sourcePoint" />
            <mxPoint x="857.82" y="544" as="targetPoint" />
          </mxGeometry>
        </mxCell>
        <mxCell id="VrZD-T83ChpV0tjRcADD-16" value="" style="edgeStyle=orthogonalEdgeStyle;rounded=0;orthogonalLoop=1;jettySize=auto;html=1;entryX=0.5;entryY=0;entryDx=0;entryDy=0;exitX=0.5;exitY=1;exitDx=0;exitDy=0;" edge="1" parent="WIyWlLk6GJQsqaUBKTNV-1" source="mcAzmB1divL-ZnLY_8Cf-95" target="mcAzmB1divL-ZnLY_8Cf-54">
          <mxGeometry relative="1" as="geometry">
            <mxPoint x="725.82" y="516" as="sourcePoint" />
            <mxPoint x="726" y="572" as="targetPoint" />
          </mxGeometry>
        </mxCell>
        <mxCell id="VrZD-T83ChpV0tjRcADD-17" value="&lt;p style=&quot;line-height: 110%;&quot;&gt;&lt;span style=&quot;font-size: 18px;&quot;&gt;Конец&lt;/span&gt;&lt;/p&gt;" style="ellipse;whiteSpace=wrap;html=1;" vertex="1" parent="WIyWlLk6GJQsqaUBKTNV-1">
          <mxGeometry x="1208.46" y="730" width="110" height="60" as="geometry" />
        </mxCell>
        <mxCell id="VrZD-T83ChpV0tjRcADD-18" value="" style="edgeStyle=orthogonalEdgeStyle;rounded=0;orthogonalLoop=1;jettySize=auto;html=1;entryX=0.5;entryY=0;entryDx=0;entryDy=0;exitX=0.5;exitY=1;exitDx=0;exitDy=0;" edge="1" parent="WIyWlLk6GJQsqaUBKTNV-1" target="VrZD-T83ChpV0tjRcADD-17" source="mcAzmB1divL-ZnLY_8Cf-104">
          <mxGeometry relative="1" as="geometry">
            <mxPoint x="725.82" y="516" as="sourcePoint" />
            <mxPoint x="867.82" y="554" as="targetPoint" />
          </mxGeometry>
        </mxCell>
      </root>
    </mxGraphModel>
  </diagram>
</mxfile>
